# xmcd CD database file
#
# Track frame offsets:
#	150
#	27801
#	65577
#	87122
#	125219
#	150103
#	184798
#
# Disc length: 2963 seconds
#
# Revision: 0
# Processed by: cddbd v1.5.2PL0 Copyright (c) Steve Scherf et al.
# Submitted via: CDex 1.70beta2
#
DISCID=500b9107
DTITLE=Rob Whitlock - Skechin'
DYEAR=1900
DGENRE=Jazz
TTITLE0=At the Golden Pawn
TTITLE1=To Heather with Love
TTITLE2=I Deal
TTITLE3=God Bless the Child
TTITLE4=Po Man's Gravy
TTITLE5=Rob's NewTune
TTITLE6=Sketchin'
EXTD=
EXTT0=
EXTT1=
EXTT2=
EXTT3=
EXTT4=
EXTT5=
EXTT6=
PLAYORDER=
